<?xml version="1.0" encoding="UTF-8"?>
<svg xmlns="http://www.w3.org/2000/svg" xmlns:xlink="http://www.w3.org/1999/xlink" width="1920" height="329.362" viewBox="0 0 1920 329.362">
  <defs>
    <clipPath id="a">
      <rect width="1920" height="329.362" fill="none" stroke="#f27c00" stroke-width="1.5"></rect>
    </clipPath>
  </defs>
  <g transform="translate(1920 329.362) rotate(180)">
    <g clip-path="url(#a)">
      <path d="M310.014,162.557a1096.508,1096.508,0,0,1-115.7-5.9c-29.654-3.151-58.323-7.587-85.212-13.184-21.515-4.479-41.946-9.708-60.725-15.541-16.714-5.192-29-9.913-36.363-12.958-7.992-3.306-12.089-5.415-12.129-5.436L.575,108.2c.04.021,4.105,2.113,12.061,5.4,7.343,3.036,19.6,7.741,36.27,12.918,18.741,5.818,39.132,11.034,60.606,15.5,26.844,5.585,55.466,10.009,85.072,13.152a1095.216,1095.216,0,0,0,115.429,5.882c41.517,0,84.49-2.12,128.632-6.36,25.029-2.4,50.77-5.532,76.51-9.3,27.094-3.963,54.932-8.741,82.74-14.2,29.165-5.727,59.1-12.362,88.986-19.723,31.241-7.7,63.287-16.4,95.248-25.861,32-9.477,65.425-17.881,99.343-24.98,32.442-6.79,66.2-12.566,100.331-17.168,32.544-4.388,66.29-7.823,100.3-10.212,32.308-2.269,65.7-3.653,99.246-4.112q12.792-.175,25.7-.175c108.471,0,222.821,9.272,340.342,27.613,49.829,7.776,100.354,17.222,150.171,28.075,39.854,8.682,79.347,18.279,117.382,28.524,33.842,9.115,60.241,17.068,76.427,22.133,17.543,5.49,27.21,8.869,27.305,8.9l-.5,1.415c-.1-.033-9.748-3.407-27.275-8.892-16.176-5.062-42.558-13.009-76.38-22.119-38.014-10.239-77.484-19.83-117.316-28.506-49.788-10.846-100.283-20.285-150.082-28.056-117.424-18.324-231.7-27.59-340.079-27.59q-12.917,0-25.7.175c-33.517.459-66.879,1.842-99.157,4.109-33.976,2.386-67.688,5.819-100.2,10.2-34.1,4.6-67.815,10.367-100.22,17.149C847.9,69.2,814.515,77.59,782.555,87.055c-31.992,9.474-64.07,18.183-95.342,25.885-29.913,7.368-59.883,14.009-89.078,19.741C570.3,138.147,542.429,142.929,515.3,146.9c-25.769,3.768-51.54,6.9-76.6,9.3C394.548,160.438,351.55,162.557,310.014,162.557Z" transform="translate(0.511 66.047)" fill="#f27c00"></path>
      <path d="M1917.938,327.6c-.1-.084-9.818-8.574-27.322-22.536-16.155-12.886-42.431-33.2-75.867-56.8-37.58-26.526-76.36-51.713-115.264-74.86-23.1-13.743-46.5-26.91-69.546-39.136-25.353-13.448-50.91-26.089-75.962-37.572C1432.01,40.788,1315.9,9.11,1208.866,2.543c-15.257-.936-30.539-1.367-45.419-1.281-15.282.089-30.574.725-45.449,1.892-15.261,1.2-30.515,2.986-45.337,5.317-15.192,2.389-30.36,5.415-45.083,8.995-15.077,3.665-30.111,8.014-44.687,12.925C967.977,35.414,953.123,41.17,938.742,47.5c-14.7,6.469-29.33,13.718-43.47,21.545-14.448,8-28.8,16.824-42.65,26.235-27.47,18.662-55.7,36.149-83.893,51.974-26.973,15.138-54.636,29.158-82.223,41.672-26.3,11.931-53.232,22.808-80.035,32.327-25.464,9.043-51.482,17.1-77.332,23.941a941.7,941.7,0,0,1-241.061,31.595q-15.455,0-30.895-.517a904.353,904.353,0,0,1-106.331-9.844,825.754,825.754,0,0,1-81.067-16.535c-23.1-5.966-40.853-11.751-51.681-15.554-11.742-4.123-18.11-6.875-18.173-6.9l.6-1.376c.063.027,6.4,2.765,18.11,6.876,10.807,3.794,28.528,9.566,51.582,15.519a824.362,824.362,0,0,0,80.93,16.5A902.9,902.9,0,0,0,257.3,274.771q15.375.514,30.773.514A940.151,940.151,0,0,0,528.8,243.728c25.806-6.833,51.781-14.875,77.2-23.9,26.76-9.5,53.645-20.365,79.907-32.278,27.544-12.495,55.165-26.494,82.1-41.61,28.156-15.8,56.341-33.264,83.772-51.9,13.891-9.437,28.28-18.288,42.769-26.308,14.181-7.849,28.848-15.119,43.595-21.606,14.423-6.345,29.32-12.117,44.277-17.157,14.617-4.925,29.694-9.285,44.814-12.961,14.763-3.589,29.973-6.623,45.206-9.018,14.861-2.337,30.155-4.13,45.455-5.33,14.912-1.169,30.241-1.807,45.56-1.9,14.916-.086,30.231.346,45.522,1.285,14.871.913,30.126,2.33,45.341,4.211,14.779,1.828,29.925,4.144,45.016,6.884,28.829,5.234,58.6,12.221,88.489,20.768,27.957,7.995,56.717,17.554,85.481,28.411,26.707,10.082,54.071,21.53,81.331,34.026,25.079,11.5,50.662,24.151,76.041,37.614,23.071,12.238,46.491,25.418,69.61,39.174,38.936,23.167,77.748,48.375,115.358,74.924,33.463,23.621,59.76,43.953,75.927,56.85,17.522,13.977,27.26,22.481,27.356,22.565Z" transform="translate(0.511 1.112)" fill="#f27c00"></path>
      <path d="M.571,151.979l-.682-1.336c.067-.034,6.861-3.491,19.751-9.151,11.889-5.221,31.553-13.442,57.717-22.961,29.4-10.7,60.857-20.821,93.487-30.09C211.629,76.855,254.378,66.581,297.9,57.9c110.79-22.087,227.222-34.092,346.061-35.681q13.511-.181,27.145-.181c25.551,0,51.319.476,76.923,1.423,36.529,1.351,73.719,3.7,110.539,6.978,38.615,3.439,77.89,8,116.735,13.549,40.61,5.8,81.878,12.854,122.657,20.955,40.725,8.09,80.893,15.489,119.388,21.99,36.822,6.219,73.093,11.783,107.8,16.537,33.1,4.533,65.651,8.449,96.755,11.639,29.55,3.031,58.566,5.487,86.242,7.3,41.124,2.693,80.143,4.038,116.856,4.038,48.765,0,93.466-2.373,133.687-7.113a669.926,669.926,0,0,0,76.113-13.1,384.667,384.667,0,0,0,49.054-14.875,193.382,193.382,0,0,0,26.285-12.19,64.6,64.6,0,0,0,7.807-5.052l.95,1.161A64,64,0,0,1,1911,80.411a194.03,194.03,0,0,1-26.4,12.271,385.04,385.04,0,0,1-49.172,14.945,670.068,670.068,0,0,1-76.238,13.161c-40.355,4.772-85.23,7.16-134.176,7.16q-55,0-116.675-4.023c-27.707-1.81-56.756-4.266-86.34-7.3-31.14-3.191-63.73-7.11-96.866-11.645-34.751-4.757-71.063-10.326-107.929-16.551-38.54-6.508-78.755-13.915-119.529-22.015-40.753-8.1-81.994-15.141-122.577-20.941-38.819-5.548-78.067-10.1-116.656-13.54-36.794-3.277-73.958-5.623-110.461-6.973-34.678-1.283-69.666-1.7-103.992-1.241C525.238,25.31,408.9,37.306,298.2,59.375c-43.487,8.67-86.2,18.934-126.945,30.508-32.6,9.259-64.014,19.371-93.384,30.057-26.126,9.505-45.758,17.713-57.626,22.925C7.393,148.508.638,151.945.571,151.979Z" transform="translate(0.511 50.649)" fill="#f27c00"></path>
    </g>
  </g>
</svg>
