<svg xmlns="http://www.w3.org/2000/svg" viewBox="0 0 1920 140" fill="none" aria-hidden="true">
  <path fill="none" stroke="rgba(242,124,0,0.55)" stroke-width="1.5" d="M-3840 0 C-3704 0 -3657 50 -3487 50 C-3363 50 -3282 19.6 -3088 19.6 C-2894 19.6 -2855 50 -2728 50 C-2464 50 -2204 0 -1920 0 C-1784 0 -1737 50 -1567 50 C-1443 50 -1362 19.6 -1168 19.6 C-974 19.6 -935 50 -808 50 C-544 50 -284 0 0 0 C135 0 182 50 352 50 C476 50 557 19.6 751 19.6 C945 19.6 984 50 1111 50 C1375 50 1635 0 1920 0 C2055 0 2102 50 2272 50 C2396 50 2477 19.6 2671 19.6 C2865 19.6 2904 50 3031 50 C3295 50 3555 0 3840 0 L3840 125 M3840 125 C3704 125 3657 75 3487 75 C3363 75 3282 105.4 3088 105.4 C2894 105.4 2855 75 2728 75 C2464 75 2204 125 1920 125 C1784 125 1737 75 1567 75 C1443 75 1362 105.4 1168 105.4 C974 105.4 935 75 808 75 C544 75 284 125 0 125 C-135 125 -182 75 -352 75 C-476 75 -557 105.4 -751 105.4 C-945 105.4 -984 75 -1111 75 C-1375 75 -1635 125 -1920 125 C-2055 125 -2102 75 -2272 75 C-2396 75 -2477 105.4 -2671 105.4 C-2865 105.4 -2904 75 -3031 75 C-3295 75 -3555 125 -3840 125 L-3840 0">
    <animate attributeName="d" dur="12.5s" repeatCount="indefinite"
      values="M-3840 0 C-3704 0 -3657 50 -3487 50 C-3363 50 -3282 19.6 -3088 19.6 C-2894 19.6 -2855 50 -2728 50 C-2464 50 -2204 0 -1920 0 C-1784 0 -1737 50 -1567 50 C-1443 50 -1362 19.6 -1168 19.6 C-974 19.6 -935 50 -808 50 C-544 50 -284 0 0 0 C135 0 182 50 352 50 C476 50 557 19.6 751 19.6 C945 19.6 984 50 1111 50 C1375 50 1635 0 1920 0 C2055 0 2102 50 2272 50 C2396 50 2477 19.6 2671 19.6 C2865 19.6 2904 50 3031 50 C3295 50 3555 0 3840 0 L3840 125 M3840 125 C3704 125 3657 75 3487 75 C3363 75 3282 105.4 3088 105.4 C2894 105.4 2855 75 2728 75 C2464 75 2204 125 1920 125 C1784 125 1737 75 1567 75 C1443 75 1362 105.4 1168 105.4 C974 105.4 935 75 808 75 C544 75 284 125 0 125 C-135 125 -182 75 -352 75 C-476 75 -557 105.4 -751 105.4 C-945 105.4 -984 75 -1111 75 C-1375 75 -1635 125 -1920 125 C-2055 125 -2102 75 -2272 75 C-2396 75 -2477 105.4 -2671 105.4 C-2865 105.4 -2904 75 -3031 75 C-3295 75 -3555 125 -3840 125 L-3840 0;
      M-1920 0 C-1784 0 -1737 50 -1567 50 C-1443 50 -1362 19.6 -1168 19.6 C-974 19.6 -935 50 -808 50 C-544 50 -284 0 0 0 C135 0 182 50 352 50 C476 50 557 19.6 751 19.6 C945 19.6 984 50 1111 50 C1375 50 1635 0 1920 0 C2055 0 2102 50 2272 50 C2396 50 2477 19.6 2671 19.6 C2865 19.6 2904 50 3031 50 C3295 50 3555 0 3840 0 C3975 0 4022 50 4192 50 C4316 50 4397 19.6 4591 19.6 C4785 19.6 4824 50 4951 50 C5215 50 5475 0 5760 0 L5760 125 M5760 125 C5624 125 5577 75 5407 75 C5283 75 5202 105.4 5008 105.4 C4814 105.4 4775 75 4648 75 C4384 75 4124 125 3840 125 C3704 125 3657 75 3487 75 C3363 75 3282 105.4 3088 105.4 C2894 105.4 2855 75 2728 75 C2464 75 2204 125 1920 125 C1784 125 1737 75 1567 75 C1443 75 1362 105.4 1168 105.4 C974 105.4 935 75 808 75 C544 75 284 125 0 125 C-135 125 -182 75 -352 75 C-476 75 -557 105.4 -751 105.4 C-945 105.4 -984 75 -1111 75 C-1375 75 -1635 125 -1920 125 L-1920 0"/>
  </path>
  <path fill="none" stroke="rgba(242,124,0,0.4)" stroke-width="1.5" transform="translate(0 8)" d="M-3360 0 C-3224 0 -3177 50 -3007 50 C-2883 50 -2802 19.6 -2608 19.6 C-2414 19.6 -2375 50 -2248 50 C-1984 50 -1724 0 -1440 0 C-1304 0 -1257 50 -1087 50 C-963 50 -882 19.6 -688 19.6 C-494 19.6 -455 50 -328 50 C-64 50 195 0 480 0 C615 0 662 50 832 50 C956 50 1037 19.6 1231 19.6 C1425 19.6 1464 50 1591 50 C1855 50 2115 0 2400 0 C2535 0 2582 50 2752 50 C2876 50 2957 19.6 3151 19.6 C3345 19.6 3384 50 3511 50 C3775 50 4035 0 4320 0 L4320 125 M4320 125 C4184 125 4137 75 3967 75 C3843 75 3762 105.4 3568 105.4 C3374 105.4 3335 75 3208 75 C2944 75 2684 125 2400 125 C2264 125 2217 75 2047 75 C1923 75 1842 105.4 1648 105.4 C1454 105.4 1415 75 1288 75 C1024 75 764 125 480 125 C344 125 297 75 127 75 C3 75 -77 105.4 -271 105.4 C-465 105.4 -504 75 -631 75 C-895 75 -1155 125 -1440 125 C-1575 125 -1622 75 -1792 75 C-1916 75 -1997 105.4 -2191 105.4 C-2385 105.4 -2424 75 -2551 75 C-2815 75 -3075 125 -3360 125 L-3360 0">
    <animate attributeName="d" dur="10s" repeatCount="indefinite"
      values="M-3360 0 C-3224 0 -3177 50 -3007 50 C-2883 50 -2802 19.6 -2608 19.6 C-2414 19.6 -2375 50 -2248 50 C-1984 50 -1724 0 -1440 0 C-1304 0 -1257 50 -1087 50 C-963 50 -882 19.6 -688 19.6 C-494 19.6 -455 50 -328 50 C-64 50 195 0 480 0 C615 0 662 50 832 50 C956 50 1037 19.6 1231 19.6 C1425 19.6 1464 50 1591 50 C1855 50 2115 0 2400 0 C2535 0 2582 50 2752 50 C2876 50 2957 19.6 3151 19.6 C3345 19.6 3384 50 3511 50 C3775 50 4035 0 4320 0 L4320 125 M4320 125 C4184 125 4137 75 3967 75 C3843 75 3762 105.4 3568 105.4 C3374 105.4 3335 75 3208 75 C2944 75 2684 125 2400 125 C2264 125 2217 75 2047 75 C1923 75 1842 105.4 1648 105.4 C1454 105.4 1415 75 1288 75 C1024 75 764 125 480 125 C344 125 297 75 127 75 C3 75 -77 105.4 -271 105.4 C-465 105.4 -504 75 -631 75 C-895 75 -1155 125 -1440 125 C-1575 125 -1622 75 -1792 75 C-1916 75 -1997 105.4 -2191 105.4 C-2385 105.4 -2424 75 -2551 75 C-2815 75 -3075 125 -3360 125 L-3360 0;
      M-5280 0 C-5144 0 -5097 50 -4927 50 C-4803 50 -4722 19.6 -4528 19.6 C-4334 19.6 -4295 50 -4168 50 C-3904 50 -3644 0 -3360 0 C-3224 0 -3177 50 -3007 50 C-2883 50 -2802 19.6 -2608 19.6 C-2414 19.6 -2375 50 -2248 50 C-1984 50 -1724 0 -1440 0 C-1304 0 -1257 50 -1087 50 C-963 50 -882 19.6 -688 19.6 C-494 19.6 -455 50 -328 50 C-64 50 195 0 480 0 C615 0 662 50 832 50 C956 50 1037 19.6 1231 19.6 C1425 19.6 1464 50 1591 50 C1855 50 2115 0 2400 0 L2400 125 M2400 125 C2264 125 2217 75 2047 75 C1923 75 1842 105.4 1648 105.4 C1454 105.4 1415 75 1288 75 C1024 75 764 125 480 125 C344 125 297 75 127 75 C3 75 -77 105.4 -271 105.4 C-465 105.4 -504 75 -631 75 C-895 75 -1155 125 -1440 125 C-1575 125 -1622 75 -1792 75 C-1916 75 -1997 105.4 -2191 105.4 C-2385 105.4 -2424 75 -2551 75 C-2815 75 -3075 125 -3360 125 C-3495 125 -3542 75 -3712 75 C-3836 75 -3917 105.4 -4111 105.4 C-4305 105.4 -4344 75 -4471 75 C-4735 75 -4995 125 -5280 125 L-5280 0"/>
  </path>
  <path fill="none" stroke="rgba(242,124,0,0.35)" stroke-width="1.5" transform="translate(0 18)" d="M-3360 0 C-3224 0 -3177 50 -3007 50 C-2883 50 -2802 19.6 -2608 19.6 C-2414 19.6 -2375 50 -2248 50 C-1984 50 -1724 0 -1440 0 C-1304 0 -1257 50 -1087 50 C-963 50 -882 19.6 -688 19.6 C-494 19.6 -455 50 -328 50 C-64 50 195 0 480 0 C615 0 662 50 832 50 C956 50 1037 19.6 1231 19.6 C1425 19.6 1464 50 1591 50 C1855 50 2115 0 2400 0 C2535 0 2582 50 2752 50 C2876 50 2957 19.6 3151 19.6 C3345 19.6 3384 50 3511 50 C3775 50 4035 0 4320 0 L4320 125 M4320 125 C4184 125 4137 75 3967 75 C3843 75 3762 105.4 3568 105.4 C3374 105.4 3335 75 3208 75 C2944 75 2684 125 2400 125 C2264 125 2217 75 2047 75 C1923 75 1842 105.4 1648 105.4 C1454 105.4 1415 75 1288 75 C1024 75 764 125 480 125 C344 125 297 75 127 75 C3 75 -77 105.4 -271 105.4 C-465 105.4 -504 75 -631 75 C-895 75 -1155 125 -1440 125 C-1575 125 -1622 75 -1792 75 C-1916 75 -1997 105.4 -2191 105.4 C-2385 105.4 -2424 75 -2551 75 C-2815 75 -3075 125 -3360 125 L-3360 0">
    <animate attributeName="d" dur="7.5s" repeatCount="indefinite"
      values="M-3360 0 C-3224 0 -3177 50 -3007 50 C-2883 50 -2802 19.6 -2608 19.6 C-2414 19.6 -2375 50 -2248 50 C-1984 50 -1724 0 -1440 0 C-1304 0 -1257 50 -1087 50 C-963 50 -882 19.6 -688 19.6 C-494 19.6 -455 50 -328 50 C-64 50 195 0 480 0 C615 0 662 50 832 50 C956 50 1037 19.6 1231 19.6 C1425 19.6 1464 50 1591 50 C1855 50 2115 0 2400 0 C2535 0 2582 50 2752 50 C2876 50 2957 19.6 3151 19.6 C3345 19.6 3384 50 3511 50 C3775 50 4035 0 4320 0 L4320 125 M4320 125 C4184 125 4137 75 3967 75 C3843 75 3762 105.4 3568 105.4 C3374 105.4 3335 75 3208 75 C2944 75 2684 125 2400 125 C2264 125 2217 75 2047 75 C1923 75 1842 105.4 1648 105.4 C1454 105.4 1415 75 1288 75 C1024 75 764 125 480 125 C344 125 297 75 127 75 C3 75 -77 105.4 -271 105.4 C-465 105.4 -504 75 -631 75 C-895 75 -1155 125 -1440 125 C-1575 125 -1622 75 -1792 75 C-1916 75 -1997 105.4 -2191 105.4 C-2385 105.4 -2424 75 -2551 75 C-2815 75 -3075 125 -3360 125 L-3360 0;
      M-1440 0 C-1304 0 -1257 50 -1087 50 C-963 50 -882 19.6 -688 19.6 C-494 19.6 -455 50 -328 50 C-64 50 195 0 480 0 C615 0 662 50 832 50 C956 50 1037 19.6 1231 19.6 C1425 19.6 1464 50 1591 50 C1855 50 2115 0 2400 0 C2535 0 2582 50 2752 50 C2876 50 2957 19.6 3151 19.6 C3345 19.6 3384 50 3511 50 C3775 50 4035 0 4320 0 C4455 0 4502 50 4672 50 C4796 50 4877 19.6 5071 19.6 C5265 19.6 5304 50 5431 50 C5695 50 5955 0 6240 0 L6240 125 M6240 125 C6104 125 6057 75 5887 75 C5763 75 5682 105.4 5488 105.4 C5294 105.4 5255 75 5128 75 C4864 75 4604 125 4320 125 C4184 125 4137 75 3967 75 C3843 75 3762 105.4 3568 105.4 C3374 105.4 3335 75 3208 75 C2944 75 2684 125 2400 125 C2264 125 2217 75 2047 75 C1923 75 1842 105.4 1648 105.4 C1454 105.4 1415 75 1288 75 C1024 75 764 125 480 125 C344 125 297 75 127 75 C3 75 -77 105.4 -271 105.4 C-465 105.4 -504 75 -631 75 C-895 75 -1155 125 -1440 125 L-1440 0"/>
  </path>
</svg>
