<svg id="Livello_2" xmlns="http://www.w3.org/2000/svg" viewBox="0 0 651.97 287.91"><g id="Livello_1-2"><path d="M147.92,242.28c-1.01.37-2,.97-3.03,1.07-2.3.22-4.54.9-6.96.02-1.19-.43-2.83.54-4.27.58-2.59.07-4.98-1.41-5.57-3.48-.53-1.83-.74-3.75-1.09-5.64-.12-.65-.23-1.31-.38-2.19-4.52,1.9-9.44,2.42-12.69,6.57-2.32-1.96-2.28-4.42-2.01-6.72.38-3.24,1.15-6.43,1.81-9.88-.42.15-.89.2-1.22.44-3.5,2.57-6.96,5.19-10.47,7.74-1.47,1.07-3.09,1.94-4.57,2.99-1.33.94-2.56,2.01-3.83,3.03-3.98,3.22-8.13,6.25-11.85,9.74-1.74,1.63-2.76,4.09-3.9,6.29-1.14,2.21-2.14,4.51-2.99,6.84-.7,1.94-.88,4.07-1.65,5.97-2.14,5.25-4.39,10.45-6.79,15.59-.54,1.16-1.85,1.96-2.76,2.97-.43.48-1.06,1.07-1.04,1.59.05,1.65-1.09,1.69-2.52,2.11-.89-3.72-1.87-7.34-2.59-11.01-.53-2.67-1.18-5.46-.91-8.1.23-2.2,1.49-4.42,2.72-6.35,1.15-1.81,2.84-3.27,4.32-4.86,3.33-3.59,6.44-7.42,10.09-10.66,2.46-2.18,3.42-5.05,4.93-7.64,1.09-1.86,1.45-4.16,2.08-6.28.11-.36-.08-.81-.15-1.32-3.16,2.45-5.69,5.64-10.35,6.46-1.42,2.44-4.47,3.35-7.73,4.34-.23-2.77-1.6-5.36-.23-8.03.5-.97,1.15-1.93,1.93-2.69,2.22-2.16,4.38-4.42,6.86-6.24,2.34-1.72,5.03-2.98,7.62-4.33,1.75-.91,3.54-1.78,5.4-2.41,1.93-.65,3.82-1.23,4.68-3.09,1.25.57,2.48.86,3.3,1.59.49.45.7,1.74.42,2.4-.9,2.17-2.09,4.22-3.13,6.34-1.1,2.22-2.19,4.43-3.2,6.68-.22.48-.08,1.12-.11,1.68.6-.12,1.33-.05,1.76-.38,3.35-2.53,6.55-5.26,9.97-7.68,3.97-2.82,8.23-5.23,12.14-8.13,3.84-2.85,8.65-4.49,11.2-9,1.34-2.36,2.93-4.57,4.43-6.84,1.88-2.85,3.77-5.69,5.67-8.52.87-1.29,2.77-.77,3.73,1.16.66,1.32.83,2.62.3,4.25-1.54,4.76-4.76,8.38-8.18,11.61-2.42,2.29-4.71,4.56-6.23,7.43-1.79,3.37-3.19,6.94-4.97,10.9,1.12-.09,1.69,0,2.13-.2,2.2-.98,4.39-1.99,6.55-3.06,2.01-.98,3.81-.71,4.76,1.27.84,1.74,1.4,3.71,1.59,5.63.29,3.04.88,4.54,4.43,5.05,3.64.53,7.21,1.47,10.79,2.34.64.16,1.16.85,1.73,1.29.02.25.03.51.05.76M62.9,278.22l.65-.06c3.42-6.11,5.61-12.7,7.48-19.48-2.49,2.1-4.81,4.27-6.76,6.72-2.38,2.98-3.34,6.49-2.48,10.31.2.88.73,1.67,1.11,2.51M71.08,231.09c.15.27.31.55.46.82,1.24-.62,2.45-1.3,3.72-1.85,1.1-.48,1.77-2.38,3.07-1.38,2.39-2.11,4.72-4.17,7.05-6.22-.13-.15-.26-.3-.39-.45-5.78,1.36-8.91,6.57-13.9,9.09" style="fill:#1a2332; fill-rule:evenodd;"/><path d="M16.32,216.88c2.26-.16,4.39-.12,6.44-.48,6.23-1.11,12.48-1.23,18.78-.81.61.04,1.55-.51,1.85-1.06,1.86-3.36,3.59-6.8,5.36-10.21,2.05-3.96,4.15-7.9,6.14-11.89.99-1.98,1.73-4.09,2.69-6.09.47-.98,1.16-1.86,1.74-2.76,2.7,1.28,3,2.41,1.88,4.88-1.82,3.99-3.41,8.09-5.23,12.08-1.98,4.34-4.13,8.6-6.2,12.9-.37.76-.7,1.54-1.22,2.68,2.05.29,3.78.61,5.53.78,3.88.36,6.75,3.89,5.44,7.17-.85,2.13-1.85,4.2-2.59,6.36-.67,1.96-1.06,4.01-1.61,6.01-.16.58-.28,1.27-.66,1.67-.66.69-1.39.84-1.76-.4-1.04-3.48-.77-6.86.68-10.15.51-1.15,1.18-2.24,1.86-3.53-.74-.24-1.25-.5-1.77-.55-1.99-.21-4.02-.63-5.98-.4-1.15.13-2.69,1.09-3.15,2.1-1.93,4.22-3.82,8.49-5.15,12.92-1.49,4.98-2.27,10.16-3.57,15.2-.39,1.51-1.48,2.84-2.55,4.16-1.22-2.39-.99-4.78-.81-7.16.55-7.57,2.71-14.75,5.32-21.82.61-1.65.99-3.37,1.63-5.57-5.88.54-11.29,1.04-16.7,1.54-2.86.27-5.72.56-8.58.82-1.28.12-1.94.77-2.31,2.02-1.36,4.64-2.81,9.26-4.27,13.87-.22.68-.69,1.29-1.04,1.93-.25-.05-.5-.1-.74-.16-.04-.91-.26-1.86-.1-2.74.79-4.33,1.65-8.64,2.54-12.95.26-1.25-.04-1.62-1.31-1.28-1.63.44-3.29.75-4.23,2.41-.14.26-.6.34-1.15.63-.36-1.04-.82-1.94-.96-2.87-.26-1.65-.22-3.34-.5-4.99-.25-1.48.44-1.83,1.69-2.02,3.06-.47,6.12-.98,9.16-1.61.53-.11,1.09-.79,1.35-1.34,4.66-9.93,9.29-19.87,13.89-29.83.94-2.03,1.64-4.17,2.58-6.2.27-.57.99-.93,1.51-1.38.25.69.82,1.44.68,2.05-.44,1.99-.99,3.99-1.76,5.87-1.95,4.76-4.01,9.48-6.07,14.19-2.14,4.88-4.34,9.73-6.49,14.6-.16.37-.15.81-.26,1.41" style="fill:#1a2332; fill-rule:evenodd;"/><path d="M47.63,0h93.74l-28.26,44.56H47.63V0ZM176.83,145.77H47.64l75.94-41.05,53.25,41.05ZM47.63,145.79V44.56l42.94,34.33-42.94,66.89Z" style="fill:#1a2332;"/><polygon points="240.47 .14 232.03 44.53 192.35 44.53 200.86 .14 240.47 .14" style="fill:#1a2332;"/><path d="M223.38,88.61c-5.16,22.18-4.55,43.01,16.88,43.01,35.02,0,69.89-91.75,7.62-90.66l-9.39.16c15.28-7.82,21.77-9.66,39.65-9.66,41.8,0,50.29,25.6,42.91,57.3-9.97,42.84-41.42,57.65-80.37,57.65-66.89,0-63.28-30.99-56.85-58.6l3.56-19.12,44.64-24.17-8.65,44.08Z" style="fill:#1a2332;"/><path d="M516.74,38.82c-5.61-2.64-17.54-5.95-27.29-6.22-22.25-.62-35.99.59-35.99.59l-4.05,17.15s21.88-1.89,36.09,0c8.17,1.08,16.12,8.86,13.13,20.39l-7.88,29.21c-3.26,14.03-16.56,27.08-33.9,28.61-11.58,1.02-21.9-4.83-20.29-12.21,3.87-17.84,34.08-26.75,47.2-28.25l3.86-13.93c-21.95,2.77-79.82,12.89-87.29,44.97-4.14,17.78,14.32,29.1,38.07,29.1,19.59,0,35.04-7.48,43.59-13.2l-2.54,10.74h39.91l14.25-60.98c3.66-23.23-2.44-39.18-16.88-45.96Z" style="fill:#1a2332;"/><path d="M435.86,50.57l4.28-17.42c-15.09-.24-43.66,5.27-58.51,20.01l6.54-27.05-44.66,24.21-22.75,95.45h39.58l10.72-46.28c3.1-13.58,9.52-24.06,19.76-32.46,5.89-4.83,12.81-8.18,20.05-10.95,12.2-4.66,24.99-5.5,24.99-5.5Z" style="fill:#1a2332;"/><path d="M647.54,50.58l4.43-17.42c-15.09-.24-43.66,5.27-58.51,20.01l6.54-27.05-44.71,24.21-22.69,95.45h39.58l10.72-46.28c3.1-13.58,9.52-24.06,19.76-32.46,5.89-4.83,12.91-7.94,20.05-10.95,11.83-4.98,24.84-5.5,24.84-5.5Z" style="fill:#1a2332;"/></g></svg>
